<svg width="263" height="80" viewBox="0 0 263 80" fill="none" xmlns="http://www.w3.org/2000/svg">
<path d="M98.3418 49.4378H91.1387L89.866 52.7414H83.3669L91.6532 33.7859H97.9356L106.222 52.7414H99.6146L98.3418 49.4378ZM96.5817 44.8343L94.7403 40.0683L92.8989 44.8343H96.5817Z" fill="white"/>
<path d="M110.404 38.7414H104.853V33.7859H122.346V38.7414H116.795V52.7414H110.404V38.7414Z" fill="white"/>
<path d="M133.664 53.211C131.633 53.211 129.792 52.7777 128.167 51.9383C126.542 51.0988 125.27 49.9073 124.349 48.3909C123.428 46.9015 122.968 45.1955 122.968 43.3C122.968 41.4044 123.428 39.6984 124.349 38.182C125.27 36.6926 126.542 35.5011 128.167 34.6616C129.792 33.8222 131.633 33.3889 133.664 33.3889C135.695 33.3889 137.537 33.8222 139.161 34.6616C140.786 35.5011 142.059 36.6926 142.98 38.182C143.9 39.6984 144.361 41.4044 144.361 43.3C144.361 45.1955 143.9 46.9015 142.98 48.3909C142.059 49.9073 140.786 51.0988 139.161 51.9383C137.537 52.7777 135.695 53.211 133.664 53.211ZM133.664 48.0388C134.45 48.0388 135.181 47.8493 135.831 47.4431C136.453 47.064 136.968 46.5224 137.347 45.7913C137.726 45.0872 137.916 44.2477 137.916 43.3C137.916 42.3522 137.726 41.5127 137.347 40.7816C136.968 40.0775 136.453 39.5359 135.831 39.1297C135.181 38.7506 134.45 38.5611 133.664 38.5611C132.879 38.5611 132.148 38.7506 131.525 39.1297C130.875 39.5359 130.361 40.0775 129.981 40.7816C129.602 41.5127 129.413 42.3522 129.413 43.3C129.413 44.2477 129.602 45.0872 129.981 45.7913C130.361 46.5224 130.875 47.064 131.525 47.4431C132.148 47.8493 132.879 48.0388 133.664 48.0388Z" fill="white"/>
<path d="M163.626 52.7414L163.572 44.1031L159.456 51.0354H156.64L152.524 44.401V52.7414H146.702V33.7859H151.955L158.129 43.8865L164.141 33.7859H169.394L169.448 52.7414H163.626Z" fill="white"/>
<path d="M178.942 33.7859H172.552V52.7414H178.942V33.7859Z" fill="white"/>
<path d="M191.806 53.211C189.802 53.211 187.988 52.8048 186.39 51.9383C184.793 51.0988 183.52 49.9344 182.626 48.418C181.706 46.9286 181.245 45.2226 181.245 43.3C181.245 41.3773 181.706 39.6713 182.626 38.1549C183.52 36.6655 184.793 35.474 186.39 34.6346C187.988 33.8222 189.802 33.3889 191.806 33.3889C193.648 33.3889 195.299 33.7139 196.735 34.3638C198.17 35.0137 199.361 35.9615 200.309 37.18L196.274 40.7816C195.11 39.2922 193.729 38.5611 192.131 38.5611C190.804 38.5611 189.721 38.9943 188.909 39.8338C188.096 40.7003 187.69 41.8648 187.69 43.3C187.69 44.7352 188.096 45.8996 188.909 46.739C189.721 47.6056 190.804 48.0388 192.131 48.0388C193.729 48.0388 195.11 47.3077 196.274 45.8183L200.309 49.4199C199.361 50.6385 198.17 51.5862 196.735 52.2362C195.299 52.8861 193.648 53.211 191.806 53.211Z" fill="white"/>
<path d="M219.531 33.7859V52.7415H217.555V43.9948H205.694V52.7415H203.69V33.7859H205.694V42.2347H217.555V33.7859H219.531Z" fill="white"/>
<path d="M233.339 52.9039C230.875 52.9039 228.979 52.1999 227.598 50.7917C226.217 49.3836 225.54 47.3256 225.54 44.6447V33.7859H227.544V44.5635C227.544 46.7569 228.031 48.4087 229.033 49.4919C230.035 50.5751 231.47 51.1167 233.339 51.1167C235.234 51.1167 236.67 50.5751 237.672 49.4919C238.674 48.4087 239.161 46.7569 239.161 44.5635V33.7859H241.111V44.6447C241.111 47.3256 240.434 49.3836 239.08 50.7917C237.699 52.1999 235.803 52.9039 233.339 52.9039Z" fill="white"/>
<path d="M259.1 42.9658C260.346 43.2366 261.294 43.7782 261.998 44.5635C262.675 45.3759 263 46.4049 263 47.6776C263 49.3024 262.404 50.548 261.213 51.4146C259.994 52.3082 258.234 52.7414 255.878 52.7414H247.158V33.7859H255.336C257.449 33.7859 259.1 34.2192 260.265 35.0586C261.429 35.8981 261.998 37.1167 261.998 38.6602C261.998 39.7163 261.754 40.6099 261.24 41.314C260.725 42.0451 259.994 42.6138 259.1 42.9658ZM249.162 35.4377V42.3159H255.201C256.745 42.3159 257.909 42.018 258.748 41.4223C259.588 40.8536 259.994 39.9871 259.994 38.8768C259.994 37.7666 259.588 36.9 258.748 36.3043C257.909 35.7356 256.745 35.4377 255.201 35.4377H249.162ZM255.851 51.0896C257.557 51.0896 258.83 50.7917 259.696 50.2231C260.563 49.6544 260.996 48.7337 260.996 47.5151C260.996 45.1592 259.29 43.9677 255.851 43.9677H249.162V51.0896H255.851Z" fill="white"/>
<path d="M52.939 74.2538C52.1584 75.2573 51.2284 76.115 50.1723 76.6091C49.6437 76.8565 49.0854 76.9872 48.5277 77.0591C47.9606 77.0784 47.3977 77.0773 46.8394 76.9263C45.7234 76.6768 44.6418 76.1332 43.6524 75.4145C42.6588 74.7011 41.735 73.8455 40.8835 72.9107C40.0336 71.9734 39.2306 70.9792 38.4828 69.9351C38.0506 69.3196 37.634 68.6921 37.2273 68.0568C36.3279 68.652 35.4125 69.2274 34.4772 69.7768C35.7921 71.5906 37.2419 73.3242 38.9145 74.8818C39.9488 75.8416 41.0642 76.743 42.3224 77.4788C43.5712 78.2136 44.9803 78.8021 46.5103 78.9791C47.2685 79.0895 48.058 79.0218 48.8167 78.8968C49.5729 78.7203 50.303 78.45 50.9518 78.0537C52.2464 77.257 53.2187 76.1207 53.9155 74.9058C55.3059 72.4546 55.9068 69.7669 56.2193 67.1074C55.8329 68.3937 55.4111 69.6628 54.8695 70.8699C54.342 72.0796 53.715 73.2404 52.939 74.2538Z" fill="#EA923E"/>
<path d="M14.1768 67.15C13.7961 66.6985 13.53 66.1153 13.3118 65.4925L13.166 65.0108L13.0624 64.4999L13.0212 64.2963L13.0103 64.2437L12.979 63.9771L12.9129 63.4428C12.8712 62.7127 12.8535 61.9664 12.9212 61.204C13.0342 59.6819 13.3378 58.1331 13.7393 56.5964C14.5585 53.5208 15.7854 50.4999 17.206 47.5685C18.6204 44.633 20.2436 41.7907 22.01 39.0213C22.0418 39.1802 22.073 39.3385 22.1053 39.4968C22.2485 40.1925 22.3974 40.8862 22.5542 41.5788L14.1872 60.7182C14.1799 60.7942 14.1695 60.8697 14.1632 60.9452H28.5294L28.8475 60.1193C28.8481 60.1214 28.8491 60.1235 28.8501 60.125C28.8512 60.124 28.8522 60.1224 28.8538 60.1214C29.0501 60.5343 29.2438 60.9478 29.449 61.3571C29.9276 62.32 30.4332 63.2704 30.9556 64.2119C29.9729 64.8118 28.9767 65.3805 27.9669 65.9122C26.5671 66.6392 25.1366 67.2865 23.6868 67.7979C22.2397 68.2978 20.7664 68.7055 19.3448 68.8201C18.9922 68.8425 18.636 68.8758 18.2965 68.8581C17.9465 68.869 17.6226 68.8191 17.2904 68.7899C16.868 68.7222 16.466 68.6207 16.0874 68.4863C15.8916 68.4176 15.7 68.3415 15.5198 68.2509C15.2365 68.0968 14.9756 67.9156 14.7335 67.7104C14.534 67.5411 14.3471 67.3563 14.1768 67.15ZM43.4522 43.3749H35.2685L39.3601 32.7848L43.4522 43.3749ZM24.518 25.4082C25.3272 25.416 26.136 25.4343 26.9431 25.4629C27.4878 25.4864 28.032 25.5166 28.5762 25.5483V25.5504C28.8887 25.5692 29.2095 25.5905 29.5329 25.6129C29.7979 25.6316 30.0666 25.6514 30.3359 25.6723C30.4176 25.6785 30.4994 25.6848 30.5811 25.691C31.0451 25.7275 31.5128 25.7681 31.9799 25.8108C32.4241 25.8519 32.8678 25.8925 33.3115 25.941C33.8728 26.0003 34.4259 26.0644 34.9586 26.1326C37.6233 26.4617 40.2792 26.8903 42.9132 27.4298C45.5508 27.9527 48.1671 28.577 50.7495 29.3077C50.8615 29.3384 50.9729 29.3717 51.0849 29.403C51.5072 29.5212 51.928 29.6436 52.3477 29.7691C52.5649 29.8336 52.7821 29.8987 52.9992 29.9654C53.2372 30.0388 53.4752 30.1148 53.7126 30.1903C53.9715 30.2731 54.2303 30.3554 54.488 30.4403C54.8041 30.5439 55.1197 30.6481 55.4343 30.7548C56.4242 31.0907 57.41 31.4391 58.387 31.8068C59.2436 32.1286 60.0904 32.4718 60.9324 32.8249C59.5061 35.274 57.949 37.6575 56.2722 39.9598C56.154 40.1222 56.0305 40.2811 55.9113 40.443L52.1926 31.937C51.5697 31.7485 50.9448 31.5646 50.3168 31.3917C47.7338 30.6616 45.1175 30.0372 42.4804 29.5139C39.8464 28.9744 37.1906 28.5463 34.5259 28.2172C32.7907 27.9943 30.4905 27.7714 28.647 27.6397L27.6097 30.0128C27.6165 30.0117 27.6222 30.0102 27.629 30.0091C27.6316 30.0362 27.6337 30.0643 27.6368 30.0919C27.9055 32.6874 28.2914 35.2766 28.7788 37.8481C29.2506 40.4232 29.8328 42.9817 30.4989 45.5157C31.1524 48.0539 31.9205 50.5608 32.7626 53.0386C32.8277 53.2281 32.8969 53.4161 32.9652 53.6041H44.3614C44.0479 53.9061 43.7375 54.2118 43.4209 54.5102C41.0619 56.7234 38.6034 58.8289 36.0246 60.751C35.356 61.2582 34.6779 61.7503 33.9916 62.2289C33.1391 60.4854 32.3548 58.7039 31.6315 56.8948C31.3659 56.2318 31.1102 55.5648 30.8597 54.8961L31.0316 54.4503C30.9311 54.4847 30.8306 54.5175 30.7306 54.5514C30.4739 53.8577 30.2234 53.1615 29.9838 52.4616C29.562 51.2222 29.1595 49.976 28.7804 48.7225C28.4018 47.4691 28.0461 46.2078 27.7196 44.9387C27.3868 43.6717 27.0749 42.3985 26.7869 41.1205C26.4989 39.8421 26.2354 38.5589 25.9995 37.2711C25.8386 36.4212 25.6928 35.5682 25.5543 34.7152C25.5168 34.4845 25.4803 34.2543 25.4449 34.0236C25.4418 34.0059 25.4392 33.9882 25.4366 33.9705C25.4085 33.7909 25.3777 33.6122 25.3512 33.4326C25.3496 33.4222 25.348 33.4118 25.3465 33.4019C25.3434 33.381 25.3408 33.3602 25.3382 33.3399C25.246 32.7139 25.1595 32.0869 25.0804 31.46C25.0471 31.1897 25.0189 30.9189 24.9877 30.6486C24.9434 30.2711 24.8966 29.893 24.8575 29.5144C24.8544 29.4868 24.8523 29.4592 24.8497 29.4316C24.7044 28.0922 24.5935 26.7497 24.518 25.4082ZM24.8867 14.0328C25.0762 12.7773 25.308 11.529 25.648 10.3339C25.9782 9.13719 26.3927 7.97746 26.9332 6.92657C27.4764 5.88298 28.1331 4.93416 28.9361 4.25509C29.7453 3.59998 30.6733 3.18962 31.7164 3.13963C32.7574 3.08287 33.8801 3.38959 34.9643 3.89316C36.0512 4.40767 37.0911 5.12371 38.0774 5.93037C40.0605 7.5494 41.7977 9.54858 43.4053 11.6462C44.1573 12.6257 44.8697 13.6423 45.5581 14.6775C44.389 15.5378 43.2543 16.4408 42.1555 17.3797C43.3808 16.6069 44.6135 15.8529 45.8706 15.1478C46.5569 16.1768 47.2073 17.2313 47.8541 18.2942C47.4136 17.1303 46.9157 15.9888 46.3944 14.8541C46.4023 14.8499 46.4101 14.8452 46.4179 14.841C47.8573 14.038 49.3227 13.2897 50.8214 12.6351C52.3196 11.9821 53.8376 11.3921 55.3822 10.9447C56.9247 10.5099 58.4974 10.1907 60.0299 10.162C60.4091 10.1527 60.7871 10.1605 61.1579 10.1886C62.2755 10.273 63.3321 10.5406 64.1778 11.0739C64.7444 11.4212 65.2078 11.879 65.5869 12.3997C65.8577 12.7788 66.0582 13.2147 66.2186 13.6745C66.2811 13.8537 66.3389 14.0354 66.39 14.2203L66.5076 14.728C66.5373 14.902 66.5555 15.0816 66.5811 15.2571L66.6186 15.5211L66.6326 15.794L66.6659 16.3387C66.6649 17.0782 66.6352 17.8255 66.5243 18.5822C66.3233 20.0944 65.9306 21.6124 65.4474 23.1101C64.7517 25.2333 63.8502 27.3111 62.8301 29.3405C61.8505 28.889 60.8616 28.4609 59.868 28.0495C58.125 27.3345 56.356 26.694 54.5724 26.1055C54.5719 26.1055 54.5714 26.1055 54.5714 26.105C54.1897 25.979 53.8079 25.8561 53.4257 25.7342C52.9221 25.5754 52.4191 25.4166 51.9134 25.2666C50.9203 24.9771 49.9215 24.7089 48.9201 24.4511L46.4611 18.8248H32.5006L31.2868 21.6015C31.193 21.5953 31.0998 21.5921 31.0061 21.5859C30.4442 21.5515 29.8818 21.5213 29.3193 21.4979C28.5622 21.4661 27.8039 21.4437 27.0447 21.4354C26.1651 21.426 25.284 21.4364 24.4029 21.4567C24.3951 18.9571 24.5367 16.4648 24.8867 14.0328ZM46.334 57.6134C46.9668 57.0151 47.5906 56.4084 48.2072 55.7944C49.9866 54.0233 51.7004 52.1892 53.3481 50.2989C54.888 48.4986 56.3748 46.6504 57.7933 44.7492C58.3963 43.942 58.9905 43.127 59.5654 42.2974C61.312 39.7572 62.9556 37.1378 64.4053 34.3986C64.5465 34.132 64.6881 33.8659 64.8256 33.5971C65.2667 32.7306 65.6932 31.8557 66.1004 30.9694C66.4061 30.3049 66.7024 29.6347 66.9794 28.9546C67.62 27.3658 68.1928 25.741 68.6547 24.0688C69.1182 22.3977 69.4603 20.674 69.5989 18.8925C69.677 18.0046 69.6686 17.0933 69.6145 16.1799L69.5353 15.4878L69.4931 15.1431L69.4234 14.7957C69.3749 14.5645 69.3333 14.3343 69.277 14.1036L69.0703 13.4142C68.9646 13.11 68.8458 12.8064 68.712 12.507C68.4454 11.9107 68.1163 11.3322 67.6892 10.8078C67.0487 10.0292 66.2577 9.36059 65.3708 8.91326C64.4866 8.45812 63.5404 8.1967 62.6145 8.0837C61.686 7.96861 60.772 7.97902 59.8857 8.07641C58.1104 8.27169 56.4477 8.77682 54.8541 9.38194C53.2664 10.0042 51.7411 10.737 50.2892 11.5816C48.8451 12.4075 47.4557 13.309 46.1143 14.2703C45.5758 13.1621 45.0051 12.0675 44.388 10.9921C43.0314 8.64195 41.442 6.39957 39.4876 4.38736C38.4972 3.39428 37.3968 2.4741 36.1262 1.7164C34.8534 0.976925 33.3672 0.401489 31.7195 0.341081C30.0755 0.258801 28.3736 0.852464 27.0551 1.80389C25.7376 2.76937 24.7664 4.01398 24.0087 5.29713C22.5032 7.88425 21.7142 10.6531 21.1851 13.4043C20.6503 16.1533 20.4384 18.917 20.3649 21.6671C19.7749 21.7161 19.1854 21.7681 18.5959 21.8348C15.7823 22.1572 12.9691 22.6654 10.2122 23.5429C9.26864 23.8413 8.33492 24.1917 7.41578 24.599H7.41474C7.25018 24.6719 7.08666 24.7474 6.92263 24.8234C6.66537 24.9432 6.40864 25.0661 6.15399 25.1973C5.98995 25.2833 5.82591 25.3707 5.66291 25.4614C5.49992 25.552 5.33744 25.6452 5.17601 25.7415C4.36987 26.2222 3.58978 26.7763 2.8727 27.4366C2.72949 27.5689 2.58837 27.7048 2.44984 27.8459L2.04157 28.2734C1.91086 28.4229 1.79004 28.5859 1.66506 28.7421C1.40677 29.0457 1.19846 29.4019 0.984953 29.7477C0.964644 29.7774 0.950063 29.8118 0.931316 29.8435C0.847474 29.9883 0.778213 30.1445 0.703745 30.2955C0.662084 30.3908 0.616257 30.4825 0.572514 30.5757C0.52877 30.6689 0.48763 30.7632 0.455343 30.8621C0.39129 31.0605 0.324633 31.2574 0.265267 31.4558C0.205901 31.6542 0.153825 31.8547 0.120497 32.0609C-0.0336473 32.8775 -0.0378129 33.7185 0.0960217 34.5132C0.12935 34.7121 0.169448 34.9084 0.216316 35.1016C0.251728 35.2469 0.290264 35.3906 0.333487 35.5318C0.460551 35.9567 0.620424 36.3655 0.806334 36.754C1.05421 37.2737 1.33907 37.7616 1.651 38.223C1.75463 38.3772 1.86191 38.5277 1.97127 38.6756C2.19051 38.9714 2.42016 39.2562 2.65762 39.5312C2.89561 39.8061 3.14089 40.0707 3.39137 40.3274C4.39487 41.3554 5.48898 42.2563 6.64142 43.0546C6.92887 43.2556 7.21842 43.4514 7.51056 43.6425C8.09485 44.0243 8.68955 44.3867 9.29259 44.7304C9.59411 44.9023 9.89771 45.0705 10.2029 45.2335C11.1194 45.7235 12.0531 46.1755 12.9983 46.5942C13.3134 46.7343 13.63 46.8707 13.9476 47.0035C13.367 46.6327 12.7905 46.2583 12.2213 45.875C11.6527 45.4923 11.0913 45.1001 10.5424 44.6929C9.98936 44.2924 9.44673 43.8805 8.91712 43.4556C8.38804 43.0301 7.87197 42.5911 7.37308 42.137C7.1252 41.9084 6.87992 41.6782 6.63881 41.4449C6.15659 40.9784 5.69103 40.4993 5.25412 40.0024C5.03592 39.7535 4.82502 39.5004 4.62244 39.2416C4.41987 38.9854 4.22458 38.723 4.04024 38.4563C3.94754 38.323 3.85797 38.1887 3.771 38.0527C3.51063 37.6465 3.27628 37.2305 3.07631 36.8076C2.943 36.5254 2.82531 36.2405 2.7248 35.9525C2.67429 35.8093 2.62794 35.6661 2.58628 35.5224C2.46182 35.0912 2.38162 34.66 2.35142 34.2356C2.33163 33.9528 2.33424 33.6732 2.36132 33.3993C2.38787 33.1259 2.43943 32.8571 2.51702 32.5968C2.55399 32.4661 2.5967 32.3369 2.64461 32.2104C2.72428 32.001 2.82271 31.7984 2.93154 31.6C3.08621 31.3188 3.26535 31.0475 3.47157 30.7903C3.73559 30.4611 4.03763 30.1523 4.3704 29.8649C5.25724 29.0983 6.33729 28.4739 7.49181 27.9693C8.64789 27.4631 9.88209 27.0783 11.1382 26.7481C14.133 26.004 17.2461 25.6259 20.3936 25.4791C20.4509 27.1715 20.5696 28.8583 20.7388 30.5382V30.5393C20.8654 31.7974 21.0185 33.0519 21.1992 34.3012C21.2054 34.3418 21.2122 34.3819 21.2179 34.422C21.3018 35.0011 21.3908 35.5791 21.4851 36.1556C21.5595 36.6097 21.6408 37.0623 21.7215 37.5143C19.4067 40.3748 17.2727 43.3957 15.3735 46.5864C13.6722 49.4865 12.163 52.5308 11.0705 55.7965C10.5231 57.4285 10.0899 59.1205 9.85917 60.8911C9.73367 61.7737 9.6967 62.6861 9.70295 63.6094C9.7545 64.5416 9.83105 65.4883 10.1143 66.4449C10.3914 67.3937 10.7799 68.3613 11.4199 69.2216C11.5912 69.4554 11.7792 69.6778 11.9766 69.8929C12.5051 70.4652 13.1186 70.9656 13.7872 71.3619C14.0617 71.5202 14.3429 71.6561 14.6277 71.778C15.3053 72.0665 16.0057 72.2618 16.6988 72.3972C17.1878 72.4675 17.683 72.5466 18.1621 72.555C18.6501 72.5925 19.1208 72.5706 19.5942 72.555C21.4804 72.4607 23.2437 72.0389 24.9314 71.4978C25.5642 71.2921 26.1828 71.0625 26.7952 70.8219C27.8144 70.4214 28.8106 69.9824 29.7828 69.5085C30.9035 68.9487 31.9971 68.3519 33.0678 67.7239C34.0457 67.15 35.0029 66.5486 35.9423 65.9242C39.6616 63.4553 43.0944 60.6213 46.334 57.6134Z" fill="#EA923E"/>
<path d="M79.4159 44.3485C79.3742 44.16 79.3268 43.9746 79.2748 43.7918C79.257 43.7303 79.2373 43.6699 79.2185 43.6095C79.1815 43.4897 79.1446 43.3694 79.1034 43.2518C79.079 43.1799 79.0519 43.1096 79.0253 43.0388C78.9868 42.9341 78.9467 42.8299 78.905 42.7274C78.8743 42.6529 78.843 42.58 78.8113 42.5066C78.7696 42.4092 78.7259 42.3133 78.6811 42.2181C78.6467 42.1441 78.6118 42.0702 78.5759 41.9967C78.5306 41.9056 78.4832 41.815 78.4358 41.7244C78.3973 41.6515 78.3598 41.578 78.3202 41.5062C78.2713 41.4171 78.2202 41.3302 78.1692 41.2427C78.1286 41.1729 78.0895 41.1021 78.0473 41.0328C77.9666 40.899 77.8833 40.7672 77.7984 40.6365C77.7916 40.6261 77.7854 40.6152 77.7781 40.6047C77.7781 40.6053 77.7776 40.6053 77.7776 40.6058C77.6677 40.4365 77.5557 40.2694 77.4406 40.1064C76.5621 38.8706 75.5503 37.7848 74.4739 36.7996C72.4549 34.9462 70.2329 33.4162 67.9321 32.0664C67.4353 33.211 66.8979 34.3338 66.3381 35.443C67.2828 35.9502 68.2035 36.4913 69.1018 37.0579C70.2172 37.75 71.2791 38.5082 72.2737 39.3232C73.2637 40.1407 74.1958 41.013 74.9738 41.9676C75.129 42.1571 75.2759 42.3519 75.417 42.5482C75.6951 42.9346 75.9445 43.333 76.1585 43.7381C76.1638 43.7486 76.1695 43.7585 76.1747 43.7689C76.2731 43.9569 76.3622 44.1469 76.4439 44.3381C76.459 44.3729 76.4731 44.4073 76.4871 44.4422C76.5653 44.6328 76.6382 44.8244 76.6986 45.0171C76.7381 45.1504 76.773 45.2838 76.8022 45.4171C76.8605 45.6832 76.8965 45.9508 76.9105 46.218C76.9178 46.3518 76.9194 46.4851 76.9152 46.6179C76.9069 46.8846 76.8767 47.1501 76.8241 47.4131C76.7715 47.6766 76.6965 47.9381 76.5991 48.1963C76.4996 48.4536 76.3762 48.7056 76.2309 48.9514C75.9419 49.443 75.5685 49.9096 75.1384 50.3445C75.0311 50.4528 74.9197 50.5595 74.8056 50.6637C74.6916 50.7684 74.5744 50.8704 74.4541 50.9709C74.2146 51.173 73.9636 51.3672 73.7037 51.5526C73.2147 51.901 72.6913 52.2182 72.1492 52.5129C71.9685 52.6108 71.7857 52.7066 71.6014 52.7998C71.4566 52.8733 71.3139 52.9498 71.1676 53.0201C71.0025 53.0988 70.8338 53.1701 70.6661 53.2451C69.923 53.5763 69.1601 53.8747 68.381 54.1455C68.0634 54.2564 67.7431 54.3632 67.4213 54.4673C67.0109 54.5996 66.5959 54.7209 66.1793 54.8386C65.6158 54.9969 65.0482 55.1453 64.4759 55.2807C64.1442 55.3599 63.8114 55.4344 63.4776 55.5067C63.1672 55.577 62.8558 55.6432 62.5444 55.7072L58.8621 47.2845C57.5305 49.0493 56.1438 50.7715 54.708 52.4499C52.9338 54.485 51.081 56.4519 49.1542 58.3485L50.1754 60.9986H64.8571L62.7569 56.1941C64.4087 56.0999 66.0611 55.9155 67.7061 55.613C68.7398 55.4318 69.7647 55.1849 70.7807 54.8761C71.1192 54.773 71.4566 54.6636 71.7936 54.547C71.9612 54.4871 72.1284 54.4262 72.2956 54.3621C72.7976 54.172 73.2959 53.9643 73.787 53.731C74.4427 53.419 75.0853 53.0628 75.706 52.6452C76.934 51.8083 78.0984 50.697 78.8451 49.2186C79.5882 47.7469 79.7705 45.9425 79.4159 44.3485Z" fill="#EA923E"/>
</svg>
