<?xml version="1.0" encoding="utf-8"?>
<!-- Generator: Adobe Illustrator 24.1.2, SVG Export Plug-In . SVG Version: 6.00 Build 0)  -->
<svg version="1.1" id="Слой_1" xmlns="http://www.w3.org/2000/svg" xmlns:xlink="http://www.w3.org/1999/xlink" x="0px" y="0px"
	 viewBox="0 0 20 16" style="enable-background:new 0 0 20 16;" xml:space="preserve">
<path d="M19.9,7.6c0-0.1-0.1-0.2-0.2-0.3l-7-7c-0.4-0.4-1-0.4-1.4,0s-0.4,1,0,1.4L16.6,7H1C0.4,7,0,7.4,0,8c0,0.6,0.4,1,1,1h15.6
	l-5.3,5.3c-0.4,0.4-0.4,1,0,1.4c0.2,0.2,0.5,0.3,0.7,0.3s0.5-0.1,0.7-0.3l7-7c0.1-0.1,0.2-0.2,0.2-0.3C20,8.3,20,8.1,20,8
	c0,0,0,0,0,0C20,7.9,20,7.7,19.9,7.6z"/>
</svg>
