<?xml version="1.0" encoding="utf-8"?>
<!-- Generator: Adobe Illustrator 24.1.2, SVG Export Plug-In . SVG Version: 6.00 Build 0)  -->
<svg version="1.1" id="Слой_1" xmlns="http://www.w3.org/2000/svg" xmlns:xlink="http://www.w3.org/1999/xlink" x="0px" y="0px"
	 viewBox="0 0 16 14" style="enable-background:new 0 0 16 14;" xml:space="preserve">

<path class="st0" d="M12.5,0.5c-2.2,2.3-4.1,4.8-5.9,7.8C6.4,8.7,6.3,8.9,6.2,8.9c0,0-0.2-0.2-0.5-0.5C5.1,7.6,4.5,6.9,3.7,6.2
	L3,5.6H1.5H0L0.4,6C2,7.9,3.1,9.4,5.2,12.7L6,14h1h1l0.4-0.9c1.5-3.6,2.8-6.2,4.8-9.2c0.7-1.1,1.9-2.7,2.7-3.8L16,0h-1.5H13
	L12.5,0.5z"/>
</svg>
