<?xml version="1.0" encoding="utf-8"?>
<!-- Generator: Adobe Illustrator 24.1.2, SVG Export Plug-In . SVG Version: 6.00 Build 0)  -->
<svg version="1.1" id="Слой_1" xmlns="http://www.w3.org/2000/svg" xmlns:xlink="http://www.w3.org/1999/xlink" x="0px" y="0px"
	 viewBox="0 0 13 12" style="enable-background:new 0 0 13 12;" xml:space="preserve">

<path class="st0" d="M0.4,0C0.2,0,0.1,0.2,0,0.3c-0.1,0.2-0.2,0.1,2,3l2,2.7L2,8.7c-2.2,2.9-2.1,2.8-2,3c0,0.1,0.2,0.3,0.3,0.3
	c0,0,0.1,0,0.1,0c0,0,0.1,0,0.1,0c0.1,0,11.9-5.4,12.1-5.6c0.1,0,0.2-0.1,0.2-0.2C13,6.1,13,5.8,12.9,5.7c-0.1-0.1-1.6-0.8-6.2-2.9
	C3.4,1.3,0.6,0,0.6,0C0.5,0,0.5,0,0.4,0z"/>
</svg>
