<?xml version="1.0" encoding="utf-8"?>
<!-- Generator: Adobe Illustrator 24.1.2, SVG Export Plug-In . SVG Version: 6.00 Build 0)  -->
<svg version="1.1" id="Слой_1" xmlns="http://www.w3.org/2000/svg" xmlns:xlink="http://www.w3.org/1999/xlink" x="0px" y="0px"
	 viewBox="0 0 24 24" style="enable-background:new 0 0 24 24;" xml:space="preserve">

<path class="st0" d="M4.9,2.5C4.2,2.6,3.5,3.2,3.3,3.9L3.2,4.1v7.1v7.1l0.1,0.3c0.2,0.5,0.5,1,1,1.2c0.5,0.3,0.1,0.2,6.8,0.2
	c3.5,0,6.1,0,6.1,0c0,0-0.1-0.4-0.3-0.9c-0.1-0.5-0.3-0.9-0.3-0.9c0,0,1.4,1.1,2,1.7c0.6,0.6,2.8,2.4,2.9,2.4c0,0,0-17.9,0-18.2
	c-0.1-0.8-0.9-1.6-1.7-1.8C19.5,2.4,5.3,2.4,4.9,2.5z M10.8,7.2C10.8,7.2,10.8,7.3,10.8,7.2c-1,0.4-1.7,0.6-2.2,1
	C8.2,8.5,8.1,8.5,8.4,8.4c1.5-0.7,3.4-1,5.1-0.7c0.9,0.1,1.9,0.4,2.6,0.7c0.2,0.1,0.3,0.1,0.3,0.1c0,0-0.6-0.4-1-0.6
	c-0.4-0.2-0.9-0.4-1.3-0.5c-0.2,0-0.2-0.1-0.1-0.1c0.1-0.1,0.3-0.1,0.8,0c0.6,0.1,1.3,0.4,1.9,0.8c0.2,0.2,0.3,0.2,0.5,0.6
	c0.7,1.5,1.2,3.3,1.3,4.9l0,0.5l-0.3,0.2c-0.4,0.3-0.6,0.5-1,0.7c-0.4,0.2-0.9,0.4-1.4,0.4c-0.7,0.1-0.6,0.1-1-0.3
	c-0.3-0.4-0.4-0.5-0.3-0.5c0.1,0,0.7-0.3,1-0.5c0.3-0.2,0.7-0.5,0.7-0.6c0,0-0.2,0.1-0.5,0.2c-0.6,0.3-1,0.5-1.5,0.6
	c-1.4,0.4-2.8,0.3-4.1-0.1c-0.4-0.1-1.4-0.5-1.7-0.7c-0.1-0.1-0.2-0.1-0.2-0.1c0,0,0.3,0.4,0.5,0.5c0.2,0.2,0.7,0.4,1,0.5l0.2,0.1
	l-0.3,0.4l-0.3,0.4l-0.2,0c-0.7,0-1.4-0.3-2-0.6c-0.2-0.1-0.4-0.3-0.6-0.5l-0.3-0.3l0-0.6c0-1.3,0.4-2.8,1-4.2
	C7.6,8.5,7.7,8.3,8,8.1c0.5-0.3,1.4-0.7,2-0.9C10.5,7.1,10.7,7.1,10.8,7.2z M10.3,10.9c-0.2,0-0.4,0.1-0.6,0.4
	c-0.2,0.2-0.3,0.4-0.3,0.7c0,0.2,0,0.3,0.1,0.5c0.2,0.4,0.5,0.6,1,0.6c0.6,0,1-0.4,1-1c0-0.2,0-0.3-0.1-0.5
	C11.2,11,10.8,10.8,10.3,10.9z M14.1,10.9c-0.7,0.1-1.1,0.9-0.7,1.6c0.2,0.4,0.5,0.6,0.9,0.6c0.6,0,1.1-0.5,1.1-1.1
	c0-0.3-0.1-0.5-0.3-0.8C14.8,10.9,14.5,10.8,14.1,10.9z"/>
</svg>
