<svg width="1400" height="30" viewBox="0 0 1400 30" fill="none" xmlns="http://www.w3.org/2000/svg">
<rect opacity="0.2" width="1400" height="30" rx="4" fill="white"/>
<g opacity="0.1">
<mask id="mask0_8_1286" style="mask-type:alpha" maskUnits="userSpaceOnUse" x="0" y="0" width="1400" height="30">
<rect width="1400" height="30" rx="4" fill="white"/>
</mask>
<g mask="url(#mask0_8_1286)">
<rect x="8.5376" y="-12.8508" width="15" height="64" rx="4" transform="rotate(15 8.5376 -12.8508)" fill="#C4C4C4"/>
<rect x="425.391" y="-12.8508" width="15" height="64" rx="4" transform="rotate(15 425.391 -12.8508)" fill="#C4C4C4"/>
<rect x="842.244" y="-12.8508" width="15" height="64" rx="4" transform="rotate(15 842.244 -12.8508)" fill="#C4C4C4"/>
<rect x="216.964" y="-12.8508" width="15" height="64" rx="4" transform="rotate(15 216.964 -12.8508)" fill="#C4C4C4"/>
<rect x="633.817" y="-12.8508" width="15" height="64" rx="4" transform="rotate(15 633.817 -12.8508)" fill="#C4C4C4"/>
<rect x="1050.67" y="-12.8508" width="15" height="64" rx="4" transform="rotate(15 1050.67 -12.8508)" fill="#C4C4C4"/>
<rect x="112.751" y="-12.8508" width="15" height="64" rx="4" transform="rotate(15 112.751 -12.8508)" fill="#C4C4C4"/>
<rect x="529.604" y="-12.8508" width="15" height="64" rx="4" transform="rotate(15 529.604 -12.8508)" fill="#C4C4C4"/>
<rect x="946.457" y="-12.8508" width="15" height="64" rx="4" transform="rotate(15 946.457 -12.8508)" fill="#C4C4C4"/>
<rect x="321.178" y="-12.8508" width="15" height="64" rx="4" transform="rotate(15 321.178 -12.8508)" fill="#C4C4C4"/>
<rect x="738.031" y="-12.8508" width="15" height="64" rx="4" transform="rotate(15 738.031 -12.8508)" fill="#C4C4C4"/>
<rect x="1154.88" y="-12.8508" width="15" height="64" rx="4" transform="rotate(15 1154.88 -12.8508)" fill="#C4C4C4"/>
<rect x="1337.26" y="-12.8508" width="15" height="64" rx="4" transform="rotate(15 1337.26 -12.8508)" fill="#C4C4C4"/>
<rect x="60.6443" y="-12.8508" width="15" height="64" rx="4" transform="rotate(15 60.6443 -12.8508)" fill="#C4C4C4"/>
<rect x="477.498" y="-12.8508" width="15" height="64" rx="4" transform="rotate(15 477.498 -12.8508)" fill="#C4C4C4"/>
<rect x="894.35" y="-12.8508" width="15" height="64" rx="4" transform="rotate(15 894.35 -12.8508)" fill="#C4C4C4"/>
<rect x="269.071" y="-12.8508" width="15" height="64" rx="4" transform="rotate(15 269.071 -12.8508)" fill="#C4C4C4"/>
<rect x="685.924" y="-12.8508" width="15" height="64" rx="4" transform="rotate(15 685.924 -12.8508)" fill="#C4C4C4"/>
<rect x="1102.78" y="-12.8508" width="15" height="64" rx="4" transform="rotate(15 1102.78 -12.8508)" fill="#C4C4C4"/>
<rect x="1285.15" y="-12.8508" width="15" height="64" rx="4" transform="rotate(15 1285.15 -12.8508)" fill="#C4C4C4"/>
<rect x="164.858" y="-12.8508" width="15" height="64" rx="4" transform="rotate(15 164.858 -12.8508)" fill="#C4C4C4"/>
<rect x="581.711" y="-12.8508" width="15" height="64" rx="4" transform="rotate(15 581.711 -12.8508)" fill="#C4C4C4"/>
<rect x="998.563" y="-12.8508" width="15" height="64" rx="4" transform="rotate(15 998.563 -12.8508)" fill="#C4C4C4"/>
<rect x="373.284" y="-12.8508" width="15" height="64" rx="4" transform="rotate(15 373.284 -12.8508)" fill="#C4C4C4"/>
<rect x="790.137" y="-12.8508" width="15" height="64" rx="4" transform="rotate(15 790.137 -12.8508)" fill="#C4C4C4"/>
<rect x="1206.99" y="-12.8508" width="15" height="64" rx="4" transform="rotate(15 1206.99 -12.8508)" fill="#C4C4C4"/>
<rect x="1389.36" y="-12.8508" width="15" height="64" rx="4" transform="rotate(15 1389.36 -12.8508)" fill="#C4C4C4"/>
<rect x="34.5908" y="-12.8508" width="15" height="64" rx="4" transform="rotate(15 34.5908 -12.8508)" fill="#C4C4C4"/>
<rect x="451.444" y="-12.8508" width="15" height="64" rx="4" transform="rotate(15 451.444 -12.8508)" fill="#C4C4C4"/>
<rect x="868.297" y="-12.8508" width="15" height="64" rx="4" transform="rotate(15 868.297 -12.8508)" fill="#C4C4C4"/>
<rect x="243.018" y="-12.8508" width="15" height="64" rx="4" transform="rotate(15 243.018 -12.8508)" fill="#C4C4C4"/>
<rect x="659.871" y="-12.8508" width="15" height="64" rx="4" transform="rotate(15 659.871 -12.8508)" fill="#C4C4C4"/>
<rect x="1076.72" y="-12.8508" width="15" height="64" rx="4" transform="rotate(15 1076.72 -12.8508)" fill="#C4C4C4"/>
<rect x="1259.1" y="-12.8508" width="15" height="64" rx="4" transform="rotate(15 1259.1 -12.8508)" fill="#C4C4C4"/>
<rect x="138.804" y="-12.8508" width="15" height="64" rx="4" transform="rotate(15 138.804 -12.8508)" fill="#C4C4C4"/>
<rect x="555.657" y="-12.8508" width="15" height="64" rx="4" transform="rotate(15 555.657 -12.8508)" fill="#C4C4C4"/>
<rect x="972.51" y="-12.8508" width="15" height="64" rx="4" transform="rotate(15 972.51 -12.8508)" fill="#C4C4C4"/>
<rect x="347.231" y="-12.8508" width="15" height="64" rx="4" transform="rotate(15 347.231 -12.8508)" fill="#C4C4C4"/>
<rect x="764.084" y="-12.8508" width="15" height="64" rx="4" transform="rotate(15 764.084 -12.8508)" fill="#C4C4C4"/>
<rect x="1180.94" y="-12.8508" width="15" height="64" rx="4" transform="rotate(15 1180.94 -12.8508)" fill="#C4C4C4"/>
<rect x="1363.31" y="-12.8508" width="15" height="64" rx="4" transform="rotate(15 1363.31 -12.8508)" fill="#C4C4C4"/>
<rect x="86.6978" y="-12.8508" width="15" height="64" rx="4" transform="rotate(15 86.6978 -12.8508)" fill="#C4C4C4"/>
<rect x="503.551" y="-12.8508" width="15" height="64" rx="4" transform="rotate(15 503.551 -12.8508)" fill="#C4C4C4"/>
<rect x="920.403" y="-12.8508" width="15" height="64" rx="4" transform="rotate(15 920.403 -12.8508)" fill="#C4C4C4"/>
<rect x="295.124" y="-12.8508" width="15" height="64" rx="4" transform="rotate(15 295.124 -12.8508)" fill="#C4C4C4"/>
<rect x="711.977" y="-12.8508" width="15" height="64" rx="4" transform="rotate(15 711.977 -12.8508)" fill="#C4C4C4"/>
<rect x="1128.83" y="-12.8508" width="15" height="64" rx="4" transform="rotate(15 1128.83 -12.8508)" fill="#C4C4C4"/>
<rect x="1311.2" y="-12.8508" width="15" height="64" rx="4" transform="rotate(15 1311.2 -12.8508)" fill="#C4C4C4"/>
<rect x="190.911" y="-12.8508" width="15" height="64" rx="4" transform="rotate(15 190.911 -12.8508)" fill="#C4C4C4"/>
<rect x="607.764" y="-12.8508" width="15" height="64" rx="4" transform="rotate(15 607.764 -12.8508)" fill="#C4C4C4"/>
<rect x="1024.62" y="-12.8508" width="15" height="64" rx="4" transform="rotate(15 1024.62 -12.8508)" fill="#C4C4C4"/>
<rect x="399.338" y="-12.8508" width="15" height="64" rx="4" transform="rotate(15 399.338 -12.8508)" fill="#C4C4C4"/>
<rect x="816.19" y="-12.8508" width="15" height="64" rx="4" transform="rotate(15 816.19 -12.8508)" fill="#C4C4C4"/>
<rect x="1233.04" y="-12.8508" width="15" height="64" rx="4" transform="rotate(15 1233.04 -12.8508)" fill="#C4C4C4"/>
<rect x="1415.42" y="-12.8508" width="15" height="64" rx="4" transform="rotate(15 1415.42 -12.8508)" fill="#C4C4C4"/>
</g>
</g>
</svg>
